<svg width="276" height="276" viewBox="0 0 276 276" fill="none" xmlns="http://www.w3.org/2000/svg">
<path d="M137.997 48.9961C149.683 48.9946 161.255 51.2958 172.053 55.7666C182.85 60.2374 192.661 66.7904 200.926 75.0527C209.19 83.3151 215.746 93.1249 220.22 103.921C224.693 114.717 226.997 126.289 226.998 137.976C227.002 155.579 221.787 172.789 212.01 187.428C202.233 202.067 188.335 213.478 172.072 220.218C155.81 226.957 137.913 228.723 120.647 225.291C103.382 221.859 87.5214 213.384 75.0723 200.938C62.6231 188.492 54.144 172.634 50.708 155.369C47.2721 138.104 49.0329 120.207 55.7686 103.943C62.5042 87.6792 73.9122 73.7776 88.5488 63.9971C103.185 54.2167 120.394 48.9961 137.997 48.9961ZM144.472 72.6279C137.72 72.1149 130.942 73.1856 124.678 75.7549C118.872 78.1014 113.968 82.2431 110.684 87.5752C107.385 92.8822 105.517 98.9532 105.261 105.196C104.933 110.683 105.969 116.165 108.277 121.153C110.733 126.189 114.474 130.488 119.122 133.617C122.937 136.323 129.683 139.369 139.36 142.755C149.037 146.141 155.276 148.577 158.078 150.062C162.447 152.347 165.534 155.027 167.338 158.103C169.175 161.311 170.02 164.993 169.767 168.682C169.611 172.487 168.389 176.171 166.24 179.315C165.974 179.704 165.686 180.081 165.397 180.425C165.582 179.412 165.634 178.379 165.553 177.353C164.621 166.197 147.809 158.501 127.927 160.143C124.63 160.421 121.36 160.954 118.146 161.739C114.542 158.035 104.284 149.974 82.9492 149.619L96.5342 165.499L80 161.729C80.0308 161.763 92.3782 175.486 103.608 181.345C106.787 187.925 111.851 193.41 118.157 197.103C124.537 200.799 132.555 202.954 142.21 203.567C149.347 204.116 156.506 202.838 163.013 199.853C169.113 197.108 174.254 192.602 177.772 186.912C181.269 181.266 183.258 174.817 183.55 168.183C183.959 161.879 182.709 155.577 179.924 149.907C176.898 144.196 172.339 139.442 166.761 136.179C162.606 133.613 154.843 130.449 143.474 126.687C132.104 122.924 125.143 119.49 122.593 116.385C119.932 113.188 118.63 109.075 118.967 104.93C119.052 102.415 119.676 99.9485 120.795 97.6953C121.914 95.4421 123.502 93.4547 125.454 91.8672C130.911 87.1474 138.003 84.7584 145.204 85.2139C149.055 85.4842 152.801 86.5894 156.183 88.4521C158.312 99.4626 166.716 98.6532 168.38 98.376H179.746C179.202 96.8212 175.077 83.96 165.187 78.416C158.82 74.9153 151.73 72.9346 144.472 72.6279ZM166.628 102.424L178.504 118.979L179.912 102.047L166.628 102.424ZM171.44 90.0264C172.055 90.0264 172.655 90.2086 173.166 90.5498C173.676 90.891 174.075 91.3761 174.31 91.9434C174.544 92.5106 174.606 93.1351 174.486 93.7373C174.366 94.3395 174.071 94.893 173.637 95.3271C173.203 95.7613 172.649 96.0569 172.047 96.1768C171.445 96.2965 170.82 96.2349 170.253 96C169.686 95.765 169.201 95.3669 168.859 94.8564C168.518 94.3458 168.336 93.745 168.336 93.1309C168.336 92.3075 168.663 91.5177 169.245 90.9355C169.827 90.3534 170.617 90.0265 171.44 90.0264Z" fill="black"/>
</svg>
